<?xml version="1.0" encoding="utf-8"?>
<!-- Generator: Adobe Illustrator 21.0.2, SVG Export Plug-In . SVG Version: 6.00 Build 0)  -->
<svg version="1.1" id="Layer_1" xmlns="http://www.w3.org/2000/svg" xmlns:xlink="http://www.w3.org/1999/xlink" x="0px" y="0px"
	 viewBox="0 0 1920 523" style="enable-background:new 0 0 1920 523;" xml:space="preserve">
<style type="text/css">
	.st0{fill:#D7A449;}
	.st1{fill:#222222;}
	.st2{fill:none;enable-background:new    ;}
</style>
<g>
	<path class="st0" d="M607.7,79.8h-40.1V39.3h40.1V79.8z M568.5,104.7h38.1v184.9h-38.1V104.7z"/>
	<path class="st0" d="M651.7,104.7h35.2v28.6c8.6-22,23.8-33,45.9-33c12.5,0,22.5,3,30.2,9c7.6,6,12.5,13.2,14.5,21.5
		c2,8.4,3,21.6,3,39.6v119.2h-38.1V172.5c0-16.1-1.4-27-4.2-32.8c-2.8-5.8-8.8-8.7-18-8.7c-9.6,0-17,3.7-22.3,11.1
		c-5.3,7.4-8,22-8,44v103.5h-38.1V104.7z"/>
	<path class="st0" d="M830.9,56.5l34.4-3.3v51.5h35.3v30.8h-35.3V217c0,14.4,0.4,23.9,1.1,28.6c0.7,4.7,2.9,8.5,6.6,11.5
		s9.8,4.5,18.3,4.5c4.5,0,9.6-0.4,15.4-1.3v30.6c-10.3,2.2-19.8,3.3-28.6,3.3c-14.3,0-25.2-2.8-32.8-8.3
		c-7.6-5.6-12.4-13.1-14.5-22.6c-2.1-9.5-3.1-24-3.1-43.6v-84.2h-24v-30.8h25.1L830.9,56.5z"/>
	<path class="st0" d="M1062.5,202.8H958c0,25,3.4,41.6,10.1,49.9c6.8,8.3,15.2,12.5,25.5,12.5c17,0,27.8-11.5,32.3-34.4l35,4.6
		c-9.2,39.2-32,58.8-68.5,58.8c-22.3,0-40.2-8-53.5-24c-13.3-16-20-39.4-20-70.3c0-31.7,6.7-56.3,20.1-73.6
		c13.4-17.3,31.4-26,53.8-26c15.7,0,29,4.3,39.7,13c10.7,8.7,18.3,20.1,22.7,34.1C1059.8,161.5,1062.2,180,1062.5,202.8z
		 M1023.5,177c0-32.6-10.6-48.9-31.9-48.9c-19.9,0-30.8,16.3-32.8,48.9H1023.5z"/>
	<path class="st0" d="M1094.2,104.7h33.5V146c10.3-30.1,25.7-45.2,46.3-45.2c2,0,4.3,0.2,7,0.5v39.7c-3.2-0.4-5.8-0.5-7.7-0.5
		c-27.3,0-41,18.3-41,54.9v94.1h-38.1V104.7z"/>
	<path class="st0" d="M1190,104.7h37.6l27.5,127.1l26.6-127.1h33.5l26.4,127.8l29.3-127.8h31L1356,289.6h-32.4l-28-128.2
		l-26.7,128.2h-32.4L1190,104.7z"/>
	<path class="st0" d="M1560,195.3c0,65.9-24.4,98.9-73.2,98.9c-22.5,0-40.1-8-53-23.9c-12.9-15.9-19.3-40.3-19.3-73.2
		c0-64.6,24.4-96.9,73.2-96.9c22.2,0,39.8,7.9,52.8,23.6C1553.5,139.6,1560,163.4,1560,195.3z M1519.4,197.2c0-26-2.9-43.8-8.7-53.5
		c-5.8-9.7-13.6-14.5-23.5-14.5c-21.4,0-32.1,22.7-32.1,68c0,23.2,2.5,40.3,7.5,51.4c5,11.1,13.2,16.6,24.7,16.6
		c11.3,0,19.5-5.6,24.6-16.9C1516.9,237,1519.4,220,1519.4,197.2z"/>
	<path class="st0" d="M1596.1,104.7h33.5V146c10.3-30.1,25.7-45.2,46.3-45.2c2,0,4.3,0.2,7,0.5v39.7c-3.2-0.4-5.8-0.5-7.7-0.5
		c-27.3,0-41,18.3-41,54.9v94.1h-38.1V104.7z"/>
	<path class="st0" d="M1698.5,39.7h38.1v249.9h-38.1V39.7z"/>
	<path class="st0" d="M1877.5,39.7h38.1v249.9h-35.2v-28c-8.9,20.9-24.1,31.3-45.8,31.3c-20.8,0-36.4-8.7-46.8-26.2
		c-10.4-17.5-15.6-40.3-15.6-68.7c0-30.4,5.7-54.1,17.2-71c11.5-17,26.8-25.5,45.9-25.5c20.1,0,34.1,8.2,42.2,24.5V39.7z
		 M1877.5,180.8c0-19-3.6-32.3-10.7-40c-7.2-7.6-14.6-11.4-22.2-11.4c-21.1,0-31.7,21.7-31.7,65.1c0,46.3,10.7,69.5,32,69.5
		c8.3,0,15.7-3.8,22.5-11.5c6.7-7.7,10.1-21,10.1-40V180.8z"/>
</g>
<g>
	<path class="st1" d="M565.1,389.3h21.5c10.4,0,18.7,1.8,24.9,5.5c6.2,3.7,10.9,9.1,14.1,16.4c3.2,7.3,4.8,15.3,4.8,24.2
		c0,9.3-1.4,17.6-4.3,24.9c-2.9,7.3-7.2,13.2-13.1,17.6c-5.9,4.5-14.3,6.7-25.2,6.7h-22.6V389.3z M580.9,401.9v70h6.6
		c9.2,0,15.9-3.2,20-9.5c4.2-6.4,6.2-14.8,6.2-25.5c0-23.4-8.7-35.1-26.2-35.1H580.9z"/>
	<path class="st1" d="M654,389.3h54.6v12.6h-38.8v27.2h30.4v12.7h-30.4v29.8h39.5v12.9H654V389.3z"/>
	<path class="st1" d="M784.9,410.6l-13.5,4.7c-1.6-5.1-3.7-8.8-6.2-11.2c-2.6-2.4-6.1-3.6-10.6-3.6c-4.1,0-7.3,1.2-9.6,3.7
		c-2.3,2.5-3.4,5.3-3.4,8.4c0,3.5,1.3,6.3,3.8,8.4c2.5,2.1,7.6,4.6,15.2,7.4c6.5,2.5,11.5,4.8,14.9,7.1s6.3,5.2,8.5,9
		c2.2,3.7,3.2,8.1,3.2,13c0,8-2.8,14.8-8.5,20.5c-5.7,5.6-13.6,8.4-23.8,8.4c-17.6,0-28.5-8.9-32.7-26.7l14.1-4
		c2.5,11.7,8.9,17.6,19.3,17.6c5.1,0,8.9-1.3,11.6-3.9c2.6-2.6,3.9-5.9,3.9-9.7c0-2.8-0.9-5.5-2.7-7.9c-1.8-2.4-6.3-5-13.5-7.8
		c-7.6-2.9-13.1-5.3-16.5-7.3c-3.4-2-6.2-5-8.6-8.9s-3.6-8.4-3.6-13.3c0-7.6,2.6-14,7.9-19.1c5.3-5.2,12.3-7.8,21.1-7.8
		C770.8,387.5,780.6,395.2,784.9,410.6z"/>
	<path class="st1" d="M809.7,389.3h15.8v95.3h-15.8V389.3z"/>
	<path class="st1" d="M884.6,435.7h31.8v49.6H908l-2.1-12.1c-4.8,8.8-12.5,13.1-22.9,13.1c-10.6,0-19-4.3-24.9-13
		c-6-8.6-9-20.4-9-35.2c0-15.6,3-27.9,8.9-37c5.9-9.1,15-13.7,27.3-13.7c17.1,0,27.3,9.7,30.7,29l-14.2,3.6
		c-1.7-8.2-3.9-13.5-6.8-15.9c-2.8-2.4-6.2-3.6-10-3.6c-12.8,0-19.2,12.1-19.2,36.2c0,24.3,6.5,36.4,19.6,36.4
		c10.8,0,16.3-8.3,16.3-24.9h-17V435.7z"/>
	<path class="st1" d="M940.6,389.3h18.6l31.3,68.7v-68.7h13.2v95.3H989l-35.2-76.3v76.3h-13.2V389.3z"/>
	<path class="st1" d="M1029.9,389.3h15.8v95.3h-15.8V389.3z"/>
	<path class="st1" d="M1071.9,389.3h18.6l31.3,68.7v-68.7h13.2v95.3h-14.7l-35.2-76.3v76.3h-13.2V389.3z"/>
	<path class="st1" d="M1193.6,435.7h31.8v49.6h-8.4l-2.1-12.1c-4.8,8.8-12.5,13.1-22.9,13.1c-10.6,0-19-4.3-24.9-13
		c-6-8.6-9-20.4-9-35.2c0-15.6,3-27.9,8.9-37c5.9-9.1,15-13.7,27.3-13.7c17.1,0,27.3,9.7,30.7,29l-14.2,3.6
		c-1.7-8.2-3.9-13.5-6.8-15.9c-2.8-2.4-6.2-3.6-10-3.6c-12.8,0-19.2,12.1-19.2,36.2c0,24.3,6.5,36.4,19.6,36.4
		c10.9,0,16.3-8.3,16.3-24.9h-17V435.7z"/>
	<path class="st1" d="M1333.1,452.5l14.5,2c-3,21.2-13.4,31.8-31.2,31.8c-11.6,0-20.2-4.4-25.9-13.3c-5.7-8.9-8.5-20.8-8.5-35.7
		c0-16.1,3-28.4,9-36.9c6-8.6,14.6-12.8,25.9-12.8c17.5,0,27.7,10.8,30.8,32.5l-14.7,2.2c-1.6-14.4-6.9-21.6-16-21.6
		c-12.2,0-18.3,12.5-18.3,37.6c0,23.4,6.1,35.1,18.3,35.1c4.9,0,8.5-1.8,10.9-5.3C1330.4,464.4,1332.1,459.2,1333.1,452.5z"/>
	<path class="st1" d="M1434.5,436.9c0,16.3-2.9,28.6-8.7,36.9c-5.8,8.3-14.3,12.5-25.3,12.5c-11.1,0-19.6-4.2-25.6-12.5
		c-5.9-8.3-8.9-20.6-8.9-37c0-16.2,2.9-28.5,8.8-36.8c5.9-8.4,14.4-12.5,25.6-12.5c11,0,19.5,4.2,25.3,12.5
		C1431.5,408.3,1434.5,420.6,1434.5,436.9z M1417.9,436.9c0-11.3-1.3-20.2-3.9-26.7s-7.2-9.8-13.8-9.8s-11.1,3.3-13.8,9.8
		c-2.6,6.5-3.9,15.4-3.9,26.7c0,11.1,1.3,19.9,3.8,26.6c2.6,6.6,7.2,9.9,14,9.9c6.4,0,10.9-3.2,13.5-9.6
		C1416.6,457.4,1417.9,448.4,1417.9,436.9z"/>
	<path class="st1" d="M1457.5,389.3h18.6l31.3,68.7v-68.7h13.2v95.3h-14.7l-35.2-76.3v76.3h-13.2V389.3z"/>
	<path class="st1" d="M1594.7,452.5l14.5,2c-3,21.2-13.4,31.8-31.2,31.8c-11.6,0-20.2-4.4-25.9-13.3c-5.7-8.9-8.5-20.8-8.5-35.7
		c0-16.1,3-28.4,9-36.9c6-8.6,14.6-12.8,25.9-12.8c17.5,0,27.7,10.8,30.8,32.5l-14.7,2.2c-1.6-14.4-6.9-21.6-16-21.6
		c-12.2,0-18.3,12.5-18.3,37.6c0,23.4,6.1,35.1,18.3,35.1c4.9,0,8.5-1.8,10.9-5.3C1592,464.4,1593.7,459.2,1594.7,452.5z"/>
	<path class="st1" d="M1630.7,389.3h54.6v12.6h-38.8v27.2h30.4v12.7h-30.4v29.8h39.5v12.9h-55.2V389.3z"/>
	<path class="st1" d="M1704.9,389.3h23.6c7.5,0,13.7,0.7,18.4,2.1c4.7,1.4,8.7,4.6,11.9,9.4s4.8,10.7,4.8,17.6
		c0,6.3-1.3,11.7-3.9,16.2c-2.6,4.5-6.1,7.8-10.5,9.8c-4.4,2-11.2,3-20.3,3h-8.2v37.2h-15.8V389.3z M1720.7,401.5v33.2h7.8
		c7,0,11.8-1.3,14.5-3.9c2.7-2.6,4-6.8,4-12.7c0-4.4-0.9-7.9-2.7-10.6c-1.8-2.7-3.7-4.4-5.8-5c-2.1-0.6-5.5-0.9-10-0.9H1720.7z"/>
	<path class="st1" d="M1772.6,389.3h58.2v13.4h-21.3v81.9h-15.8v-81.9h-21.2V389.3z"/>
	<path class="st1" d="M1905,410.6l-13.5,4.7c-1.6-5.1-3.7-8.8-6.2-11.2c-2.6-2.4-6.1-3.6-10.6-3.6c-4.1,0-7.3,1.2-9.6,3.7
		c-2.3,2.5-3.4,5.3-3.4,8.4c0,3.5,1.3,6.3,3.8,8.4c2.5,2.1,7.6,4.6,15.2,7.4c6.5,2.5,11.5,4.8,14.9,7.1s6.3,5.2,8.5,9
		c2.2,3.7,3.2,8.1,3.2,13c0,8-2.8,14.8-8.5,20.5c-5.7,5.6-13.6,8.4-23.8,8.4c-17.6,0-28.5-8.9-32.7-26.7l14.1-4
		c2.5,11.7,8.9,17.6,19.3,17.6c5.1,0,8.9-1.3,11.6-3.9c2.6-2.6,3.9-5.9,3.9-9.7c0-2.8-0.9-5.5-2.7-7.9c-1.8-2.4-6.3-5-13.5-7.8
		c-7.6-2.9-13.1-5.3-16.5-7.3c-3.4-2-6.2-5-8.6-8.9c-2.4-3.9-3.6-8.4-3.6-13.3c0-7.6,2.6-14,7.9-19.1c5.3-5.2,12.3-7.8,21.1-7.8
		C1890.8,387.5,1900.7,395.2,1905,410.6z"/>
</g>
<path class="st1" d="M257.3-0.7l55.3,55.3L157.2,210.1l-55.3-55.3L257.3-0.7z"/>
<path id="Rectangle_1_copy_4" class="st0" d="M369,309.2l55.3,55.3L268.9,520l-55.3-55.3L369,309.2z"/>
<path id="Rectangle_1_copy" class="st1" d="M366.7,108.7l155.5,155.5l-55.3,55.3L311.5,164L366.7,108.7z"/>
<path id="Rectangle_1_copy_2" class="st0" d="M266.6,205.9L422,361.5l-55.3,55.3L211.3,261.2L266.6,205.9z"/>
<path id="Rectangle_1_copy_3" class="st0" d="M54.7,197.4L323,465.9l-55.3,55.3L-0.6,252.7L54.7,197.4z"/>
<path class="st2" d="z"/>
<path class="st2" d="z"/>
</svg>
